%TF.GenerationSoftware,KiCad,Pcbnew,10.0.5-10.0.5~ubuntu26.04.1*%
%TF.CreationDate,1980-01-01T00:00:00+00:00*%
%TF.ProjectId,attiny_sensor_controller,61747469-6e79-45f7-9365-6e736f725f63,1.0*%
%TF.SameCoordinates,Original*%
%TF.FileFunction,Legend,Top*%
%TF.FilePolarity,Positive*%
%FSLAX46Y46*%
G04 Gerber Fmt 4.6, Leading zero omitted, Abs format (unit mm)*
G04 Created by KiCad (PCBNEW 10.0.5-10.0.5~ubuntu26.04.1) date 1980-01-01 00:00:00*
%MOMM*%
%LPD*%
G01*
G04 APERTURE LIST*
%ADD10C,0.120000*%
G04 APERTURE END LIST*
%TO.C,C2*%
D10*
X30859420Y-12240000D02*
X31140580Y-12240000D01*
X30859420Y-13260000D02*
X31140580Y-13260000D01*
%TO.C,C1*%
X16859420Y-9990000D02*
X17140580Y-9990000D01*
X16859420Y-11010000D02*
X17140580Y-11010000D01*
%TO.C,J1*%
X37815000Y-13060000D02*
X37815000Y-16940000D01*
X39785000Y-11890000D02*
X42285000Y-11890000D01*
X39785000Y-18110000D02*
X42285000Y-18110000D01*
X42285000Y-11890000D02*
X42285000Y-12940000D01*
X42285000Y-12940000D02*
X43275000Y-12940000D01*
X42285000Y-18110000D02*
X42285000Y-17060000D01*
%TO.C,J2*%
X2620000Y-16380000D02*
X2620000Y-15000000D01*
X4000000Y-16380000D02*
X2620000Y-16380000D01*
X5270000Y-13620000D02*
X10460000Y-13620000D01*
X5270000Y-16380000D02*
X5270000Y-13620000D01*
X5270000Y-16380000D02*
X10460000Y-16380000D01*
X10460000Y-16380000D02*
X10460000Y-13620000D01*
%TO.C,D1*%
X13430000Y-19735000D02*
X15715000Y-19735000D01*
X15715000Y-18265000D02*
X13430000Y-18265000D01*
X15715000Y-19735000D02*
X15715000Y-18265000D01*
%TO.C,U1*%
X14940000Y-12440000D02*
X19060000Y-12440000D01*
X14940000Y-12535000D02*
X14940000Y-12440000D01*
X14940000Y-17560000D02*
X14940000Y-17465000D01*
X19060000Y-12440000D02*
X19060000Y-12535000D01*
X19060000Y-17465000D02*
X19060000Y-17560000D01*
X19060000Y-17560000D02*
X14940000Y-17560000D01*
X14400000Y-12530000D02*
X14160000Y-12200000D01*
X14640000Y-12200000D01*
X14400000Y-12530000D01*
G36*
X14400000Y-12530000D02*
G01*
X14160000Y-12200000D01*
X14640000Y-12200000D01*
X14400000Y-12530000D01*
G37*
%TO.C,U2*%
X30574432Y-14162500D02*
X31710000Y-14162500D01*
X31710000Y-16032500D02*
X30290000Y-16032500D01*
X30280000Y-14157500D02*
X30140000Y-13967500D01*
X30420000Y-13967500D01*
X30280000Y-14157500D01*
G36*
X30280000Y-14157500D02*
G01*
X30140000Y-13967500D01*
X30420000Y-13967500D01*
X30280000Y-14157500D01*
G37*
%TO.C,R3*%
X17512742Y-18227500D02*
X17987258Y-18227500D01*
X17512742Y-19272500D02*
X17987258Y-19272500D01*
%TO.C,R2*%
X23977500Y-15237258D02*
X23977500Y-14762742D01*
X25022500Y-15237258D02*
X25022500Y-14762742D01*
%TO.C,R1*%
X21977500Y-15237258D02*
X21977500Y-14762742D01*
X23022500Y-15237258D02*
X23022500Y-14762742D01*
%TD*%
M02*
