%TF.GenerationSoftware,KiCad,Pcbnew,10.0.5-10.0.5~ubuntu26.04.1*%
%TF.CreationDate,1980-01-01T00:00:00+00:00*%
%TF.ProjectId,attiny_sensor_controller,61747469-6e79-45f7-9365-6e736f725f63,1.0*%
%TF.SameCoordinates,Original*%
%TF.FileFunction,Copper,L2,Bot*%
%TF.FilePolarity,Positive*%
%FSLAX46Y46*%
G04 Gerber Fmt 4.6, Leading zero omitted, Abs format (unit mm)*
G04 Created by KiCad (PCBNEW 10.0.5-10.0.5~ubuntu26.04.1) date 1980-01-01 00:00:00*
%MOMM*%
%LPD*%
G01*
G04 APERTURE LIST*
%TA.AperFunction,ComponentPad*%
%ADD10R,1.700000X1.700000*%
%TD*%
%TA.AperFunction,ComponentPad*%
%ADD11C,1.700000*%
%TD*%
%TA.AperFunction,ViaPad*%
%ADD12C,0.600000*%
%TD*%
%TA.AperFunction,Conductor*%
%ADD13C,0.250000*%
%TD*%
G04 APERTURE END LIST*
D10*
%TO.P,J2,1*%
%TO.N,/UPDI*%
X4000000Y-15000000D03*
D11*
%TO.P,J2,2*%
%TO.N,/3V3*%
X6540000Y-15000000D03*
%TO.P,J2,3*%
%TO.N,/GND*%
X9080000Y-15000000D03*
%TD*%
D12*
%TO.N,/LED_CTRL*%
X14700000Y-14000000D03*
%TO.N,/I2C_SDA*%
X15300000Y-16500000D03*
%TO.N,/3V3*%
X16000000Y-13600000D03*
%TO.N,/LED_CTRL*%
X16900000Y-18100000D03*
%TO.N,/UPDI*%
X19100000Y-15700000D03*
%TO.N,/GND*%
X19400000Y-11000000D03*
%TO.N,/I2C_SDA*%
X21900000Y-14200000D03*
%TO.N,/3V3*%
X24500000Y-15100000D03*
%TO.N,/I2C_SCL*%
X28300000Y-14200000D03*
X29500000Y-14400000D03*
%TO.N,/3V3*%
X30500000Y-13400000D03*
%TO.N,/I2C_SDA*%
X31700000Y-14300000D03*
%TO.N,/GND*%
X32700000Y-12800000D03*
%TO.N,/3V3*%
X32900000Y-15100000D03*
%TO.N,/I2C_SDA*%
X33600000Y-15500000D03*
%TD*%
%TO.N,/UPDI*%
D13*
X14300000Y-16200000D02*
X14300000Y-17100000D01*
X14300000Y-17100000D02*
X14400000Y-17100000D01*
X14400000Y-17100000D02*
X14400000Y-17200000D01*
X14400000Y-17200000D02*
X14500000Y-17200000D01*
X14500000Y-17200000D02*
X14500000Y-17300000D01*
X14500000Y-17300000D02*
X14600000Y-17300000D01*
X14600000Y-17300000D02*
X14600000Y-17400000D01*
X14600000Y-17400000D02*
X14700000Y-17400000D01*
%TO.N,/LED_CTRL*%
X14700000Y-16800000D02*
X14700000Y-14000000D01*
%TO.N,/UPDI*%
X14700000Y-17400000D02*
X14700000Y-17500000D01*
X14700000Y-17500000D02*
X16300000Y-17500000D01*
%TO.N,/LED_CTRL*%
X14800000Y-16800000D02*
X14700000Y-16800000D01*
X14800000Y-16900000D02*
X14800000Y-16800000D01*
X14900000Y-16900000D02*
X14800000Y-16900000D01*
X14900000Y-17000000D02*
X14900000Y-16900000D01*
X15000000Y-17000000D02*
X14900000Y-17000000D01*
X15000000Y-17100000D02*
X15000000Y-17000000D01*
%TO.N,/I2C_SDA*%
X15300000Y-14200000D02*
X21900000Y-14200000D01*
X15300000Y-16500000D02*
X15300000Y-14200000D01*
%TO.N,/3V3*%
X16000000Y-13600000D02*
X24500000Y-13600000D01*
%TO.N,/UPDI*%
X16300000Y-17500000D02*
X16300000Y-18400000D01*
X16300000Y-18400000D02*
X16399999Y-18400000D01*
X16399999Y-18400000D02*
X16399999Y-18500000D01*
X16399999Y-18500000D02*
X16500000Y-18500000D01*
X16500000Y-18500000D02*
X16500000Y-18600000D01*
X16500000Y-18600000D02*
X16600000Y-18600000D01*
X16600000Y-18600000D02*
X16600000Y-18700000D01*
X16600000Y-18700000D02*
X17200000Y-18700000D01*
%TO.N,/LED_CTRL*%
X16900000Y-17100000D02*
X15000000Y-17100000D01*
X16900000Y-18100000D02*
X16900000Y-17100000D01*
%TO.N,/UPDI*%
X17200000Y-18600000D02*
X17300000Y-18600000D01*
X17200000Y-18700000D02*
X17200000Y-18600000D01*
X17300000Y-18500000D02*
X17400000Y-18500000D01*
X17300000Y-18600000D02*
X17300000Y-18500000D01*
X17400000Y-18400000D02*
X17500000Y-18400000D01*
X17400000Y-18500000D02*
X17400000Y-18400000D01*
X17500000Y-15700000D02*
X19100000Y-15700000D01*
X17500000Y-18400000D02*
X17500000Y-15700000D01*
%TO.N,/I2C_SDA*%
X21900000Y-14200000D02*
X23900000Y-14200000D01*
X23900000Y-14200000D02*
X23900000Y-15400000D01*
X23900000Y-15400000D02*
X24000000Y-15400000D01*
X24000000Y-15400000D02*
X24000000Y-15500000D01*
X24000000Y-15500000D02*
X24100000Y-15500000D01*
X24100000Y-15500000D02*
X24100000Y-15600000D01*
X24100000Y-15600000D02*
X24200000Y-15600000D01*
X24200000Y-15600000D02*
X24200000Y-15700000D01*
X24200000Y-15700000D02*
X24800000Y-15700000D01*
%TO.N,/3V3*%
X24500000Y-13400000D02*
X30500000Y-13400000D01*
X24500000Y-15100000D02*
X24500000Y-13400000D01*
%TO.N,/I2C_SDA*%
X24800000Y-15600000D02*
X24900000Y-15600000D01*
X24800000Y-15700000D02*
X24800000Y-15600000D01*
X24900000Y-15500000D02*
X25000000Y-15500000D01*
X24900000Y-15600000D02*
X24900000Y-15500000D01*
X25000000Y-15400000D02*
X25100000Y-15400000D01*
X25000000Y-15500000D02*
X25000000Y-15400000D01*
X25100000Y-15000000D02*
X29800000Y-15000000D01*
X25100000Y-15400000D02*
X25100000Y-15000000D01*
%TO.N,/I2C_SCL*%
X28300000Y-14200000D02*
X29300000Y-14200000D01*
X29300000Y-14200000D02*
X29300000Y-14400000D01*
X29300000Y-14400000D02*
X29500000Y-14400000D01*
%TO.N,/I2C_SDA*%
X29800000Y-14900000D02*
X29900000Y-14900000D01*
X29800000Y-15000000D02*
X29800000Y-14900000D01*
X29900000Y-14800000D02*
X30000000Y-14800000D01*
X29900000Y-14900000D02*
X29900000Y-14800000D01*
X30000000Y-14700000D02*
X30100000Y-14700000D01*
X30000000Y-14800000D02*
X30000000Y-14700000D01*
X30100000Y-14600000D02*
X31700000Y-14600000D01*
X30100000Y-14700000D02*
X30100000Y-14600000D01*
%TO.N,/3V3*%
X30500000Y-13400000D02*
X32700000Y-13400000D01*
%TO.N,/I2C_SDA*%
X31700000Y-14600000D02*
X31700000Y-14300000D01*
X32299999Y-14600000D02*
X31700000Y-14600000D01*
X32299999Y-15400000D02*
X32299999Y-14600000D01*
X32400000Y-15400000D02*
X32299999Y-15400000D01*
X32400000Y-15500000D02*
X32400000Y-15400000D01*
X32500000Y-15500000D02*
X32400000Y-15500000D01*
X32500000Y-15600000D02*
X32500000Y-15500000D01*
X32600000Y-15600000D02*
X32500000Y-15600000D01*
X32600000Y-15700000D02*
X32600000Y-15600000D01*
%TO.N,/3V3*%
X32700000Y-13400000D02*
X32700000Y-15100000D01*
X32700000Y-15100000D02*
X32900000Y-15100000D01*
%TO.N,/I2C_SDA*%
X33200000Y-15600000D02*
X33200000Y-15700000D01*
X33200000Y-15700000D02*
X32600000Y-15700000D01*
X33299999Y-15500000D02*
X33299999Y-15600000D01*
X33299999Y-15600000D02*
X33200000Y-15600000D01*
X33600000Y-15500000D02*
X33299999Y-15500000D01*
%TO.N,/UPDI*%
X4000000Y-15000000D02*
X5300000Y-15000000D01*
X5300000Y-15000000D02*
X5300000Y-16200000D01*
X5300000Y-16200000D02*
X14300000Y-16200000D01*
%TD*%
%TA.AperFunction,Conductor*%
%TO.N,/GND*%
G36*
X44393039Y-569685D02*
G01*
X44438794Y-622489D01*
X44450000Y-674000D01*
X44450000Y-29326000D01*
X44430315Y-29393039D01*
X44377511Y-29438794D01*
X44326000Y-29450000D01*
X674000Y-29450000D01*
X606961Y-29430315D01*
X561206Y-29377511D01*
X550000Y-29326000D01*
X550000Y-14140098D01*
X3049500Y-14140098D01*
X3049500Y-15859894D01*
X3049501Y-15859902D01*
X3055330Y-15889212D01*
X3077542Y-15922457D01*
X3094219Y-15933599D01*
X3110787Y-15944669D01*
X3110790Y-15944669D01*
X3110791Y-15944670D01*
X3117041Y-15945913D01*
X3140101Y-15950500D01*
X4859898Y-15950499D01*
X4889213Y-15944669D01*
X4889214Y-15944667D01*
X4900496Y-15939996D01*
X4901904Y-15943396D01*
X4948271Y-15928871D01*
X5015653Y-15947347D01*
X5062350Y-15999320D01*
X5074500Y-16052851D01*
X5074500Y-16244853D01*
X5074501Y-16244858D01*
X5108827Y-16327733D01*
X5172266Y-16391172D01*
X5236365Y-16417721D01*
X5255145Y-16425500D01*
X5344855Y-16425500D01*
X13950500Y-16425500D01*
X14017539Y-16445185D01*
X14063294Y-16497989D01*
X14074500Y-16549500D01*
X14074500Y-17144853D01*
X14074501Y-17144858D01*
X14108827Y-17227732D01*
X14108829Y-17227734D01*
X14108830Y-17227736D01*
X14172264Y-17291170D01*
X14173675Y-17292113D01*
X14207885Y-17326322D01*
X14208827Y-17327732D01*
X14208829Y-17327734D01*
X14208830Y-17327736D01*
X14253358Y-17372264D01*
X14272264Y-17391170D01*
X14273675Y-17392113D01*
X14307885Y-17426322D01*
X14308827Y-17427732D01*
X14308829Y-17427734D01*
X14308830Y-17427736D01*
X14372264Y-17491170D01*
X14373675Y-17492113D01*
X14407885Y-17526322D01*
X14408827Y-17527732D01*
X14408829Y-17527734D01*
X14408830Y-17527736D01*
X14472264Y-17591170D01*
X14473675Y-17592113D01*
X14507885Y-17626322D01*
X14508829Y-17627735D01*
X14572266Y-17691172D01*
X14636365Y-17717721D01*
X14655145Y-17725500D01*
X14744855Y-17725500D01*
X15950500Y-17725500D01*
X16017539Y-17745185D01*
X16063294Y-17797989D01*
X16074500Y-17849500D01*
X16074500Y-18444853D01*
X16074501Y-18444858D01*
X16108827Y-18527733D01*
X16108830Y-18527736D01*
X16172264Y-18591170D01*
X16172267Y-18591171D01*
X16173672Y-18592110D01*
X16207885Y-18626323D01*
X16208829Y-18627736D01*
X16272263Y-18691170D01*
X16272266Y-18691171D01*
X16273677Y-18692114D01*
X16307885Y-18726322D01*
X16308827Y-18727732D01*
X16308829Y-18727734D01*
X16308830Y-18727736D01*
X16372259Y-18791165D01*
X16372264Y-18791170D01*
X16373675Y-18792113D01*
X16407885Y-18826322D01*
X16408829Y-18827735D01*
X16472266Y-18891172D01*
X16536365Y-18917721D01*
X16555145Y-18925500D01*
X16555147Y-18925500D01*
X17244853Y-18925500D01*
X17244855Y-18925500D01*
X17286295Y-18908335D01*
X17327733Y-18891172D01*
X17327734Y-18891170D01*
X17327736Y-18891170D01*
X17391170Y-18827736D01*
X17391173Y-18827726D01*
X17392103Y-18826337D01*
X17426337Y-18792103D01*
X17427726Y-18791173D01*
X17427736Y-18791170D01*
X17491170Y-18727736D01*
X17491173Y-18727726D01*
X17492103Y-18726337D01*
X17526337Y-18692103D01*
X17527726Y-18691173D01*
X17527736Y-18691170D01*
X17591170Y-18627736D01*
X17591173Y-18627726D01*
X17592103Y-18626337D01*
X17626337Y-18592103D01*
X17627726Y-18591173D01*
X17627736Y-18591170D01*
X17691170Y-18527736D01*
X17691170Y-18527734D01*
X17691172Y-18527733D01*
X17708335Y-18486295D01*
X17725500Y-18444855D01*
X17725500Y-16049500D01*
X17745185Y-15982461D01*
X17797989Y-15936706D01*
X17849500Y-15925500D01*
X18707744Y-15925500D01*
X18774783Y-15945185D01*
X18795425Y-15961818D01*
X18854087Y-16020480D01*
X18945413Y-16073207D01*
X19047273Y-16100500D01*
X19047275Y-16100500D01*
X19152725Y-16100500D01*
X19152727Y-16100500D01*
X19254587Y-16073207D01*
X19345913Y-16020480D01*
X19420480Y-15945913D01*
X19473207Y-15854587D01*
X19500500Y-15752727D01*
X19500500Y-15647273D01*
X19473207Y-15545413D01*
X19420480Y-15454087D01*
X19345913Y-15379520D01*
X19254587Y-15326793D01*
X19152727Y-15299500D01*
X19047273Y-15299500D01*
X18945413Y-15326793D01*
X18945410Y-15326794D01*
X18854087Y-15379520D01*
X18795425Y-15438182D01*
X18734101Y-15471666D01*
X18707744Y-15474500D01*
X17544855Y-15474500D01*
X17455145Y-15474500D01*
X17455143Y-15474500D01*
X17455141Y-15474501D01*
X17372266Y-15508827D01*
X17308827Y-15572266D01*
X17274501Y-15655141D01*
X17274500Y-15655146D01*
X17274500Y-16856232D01*
X17254815Y-16923271D01*
X17202011Y-16969026D01*
X17132853Y-16978970D01*
X17069297Y-16949945D01*
X17062819Y-16943913D01*
X17027733Y-16908827D01*
X16944858Y-16874501D01*
X16944856Y-16874500D01*
X16944855Y-16874500D01*
X16944853Y-16874500D01*
X15761014Y-16874500D01*
X15693975Y-16854815D01*
X15648220Y-16802011D01*
X15638276Y-16732853D01*
X15653625Y-16688503D01*
X15673207Y-16654587D01*
X15700500Y-16552727D01*
X15700500Y-16447273D01*
X15673207Y-16345413D01*
X15620480Y-16254087D01*
X15561818Y-16195425D01*
X15528334Y-16134101D01*
X15525500Y-16107744D01*
X15525500Y-14549500D01*
X15545185Y-14482461D01*
X15597989Y-14436706D01*
X15649500Y-14425500D01*
X21507744Y-14425500D01*
X21574783Y-14445185D01*
X21595425Y-14461818D01*
X21654087Y-14520480D01*
X21745413Y-14573207D01*
X21847273Y-14600500D01*
X21847275Y-14600500D01*
X21952725Y-14600500D01*
X21952727Y-14600500D01*
X22054587Y-14573207D01*
X22145913Y-14520480D01*
X22204575Y-14461818D01*
X22265899Y-14428334D01*
X22292256Y-14425500D01*
X23550500Y-14425500D01*
X23617539Y-14445185D01*
X23663294Y-14497989D01*
X23674500Y-14549500D01*
X23674500Y-15444853D01*
X23674501Y-15444858D01*
X23708827Y-15527732D01*
X23708829Y-15527734D01*
X23708830Y-15527736D01*
X23753358Y-15572264D01*
X23772264Y-15591170D01*
X23773675Y-15592113D01*
X23807885Y-15626322D01*
X23808827Y-15627732D01*
X23808829Y-15627734D01*
X23808830Y-15627736D01*
X23872259Y-15691165D01*
X23872264Y-15691170D01*
X23873675Y-15692113D01*
X23907885Y-15726322D01*
X23908827Y-15727732D01*
X23908829Y-15727734D01*
X23908830Y-15727736D01*
X23950391Y-15769297D01*
X23972264Y-15791170D01*
X23973675Y-15792113D01*
X24007885Y-15826322D01*
X24008829Y-15827735D01*
X24072266Y-15891172D01*
X24127316Y-15913973D01*
X24155145Y-15925500D01*
X24155147Y-15925500D01*
X24844853Y-15925500D01*
X24844855Y-15925500D01*
X24889538Y-15906992D01*
X24927733Y-15891172D01*
X24927734Y-15891170D01*
X24927736Y-15891170D01*
X24991170Y-15827736D01*
X24991173Y-15827726D01*
X24992103Y-15826337D01*
X25026337Y-15792103D01*
X25027726Y-15791173D01*
X25027736Y-15791170D01*
X25091170Y-15727736D01*
X25091173Y-15727726D01*
X25092103Y-15726337D01*
X25126337Y-15692103D01*
X25127726Y-15691173D01*
X25127736Y-15691170D01*
X25191170Y-15627736D01*
X25191173Y-15627726D01*
X25192103Y-15626337D01*
X25226337Y-15592103D01*
X25227726Y-15591173D01*
X25227736Y-15591170D01*
X25291170Y-15527736D01*
X25291170Y-15527734D01*
X25291172Y-15527733D01*
X25313221Y-15474500D01*
X25325500Y-15444855D01*
X25325500Y-15349500D01*
X25345185Y-15282461D01*
X25397989Y-15236706D01*
X25449500Y-15225500D01*
X29844853Y-15225500D01*
X29844855Y-15225500D01*
X29886295Y-15208335D01*
X29927733Y-15191172D01*
X29927734Y-15191170D01*
X29927736Y-15191170D01*
X29991170Y-15127736D01*
X29991173Y-15127726D01*
X29992103Y-15126337D01*
X30026337Y-15092103D01*
X30027726Y-15091173D01*
X30027736Y-15091170D01*
X30091170Y-15027736D01*
X30091173Y-15027726D01*
X30092103Y-15026337D01*
X30126337Y-14992103D01*
X30127726Y-14991173D01*
X30127736Y-14991170D01*
X30191170Y-14927736D01*
X30191173Y-14927726D01*
X30192103Y-14926337D01*
X30226337Y-14892103D01*
X30227726Y-14891173D01*
X30227736Y-14891170D01*
X30257087Y-14861819D01*
X30318410Y-14828334D01*
X30344768Y-14825500D01*
X31655145Y-14825500D01*
X31744855Y-14825500D01*
X31950499Y-14825500D01*
X32017538Y-14845185D01*
X32063293Y-14897989D01*
X32074499Y-14949500D01*
X32074499Y-15444853D01*
X32074500Y-15444858D01*
X32108826Y-15527733D01*
X32108829Y-15527736D01*
X32172263Y-15591170D01*
X32172266Y-15591171D01*
X32173677Y-15592114D01*
X32207885Y-15626322D01*
X32208827Y-15627732D01*
X32208829Y-15627734D01*
X32208830Y-15627736D01*
X32272259Y-15691165D01*
X32272264Y-15691170D01*
X32273675Y-15692113D01*
X32307885Y-15726322D01*
X32308827Y-15727732D01*
X32308829Y-15727734D01*
X32308830Y-15727736D01*
X32350391Y-15769297D01*
X32372264Y-15791170D01*
X32373675Y-15792113D01*
X32407885Y-15826322D01*
X32408829Y-15827735D01*
X32472266Y-15891172D01*
X32527316Y-15913973D01*
X32555145Y-15925500D01*
X32555147Y-15925500D01*
X33244853Y-15925500D01*
X33244855Y-15925500D01*
X33327736Y-15891170D01*
X33327741Y-15891164D01*
X33334256Y-15886813D01*
X33400934Y-15865936D01*
X33437108Y-15872794D01*
X33437562Y-15871103D01*
X33445411Y-15873206D01*
X33445413Y-15873207D01*
X33547273Y-15900500D01*
X33547275Y-15900500D01*
X33652725Y-15900500D01*
X33652727Y-15900500D01*
X33754587Y-15873207D01*
X33845913Y-15820480D01*
X33920480Y-15745913D01*
X33973207Y-15654587D01*
X34000500Y-15552727D01*
X34000500Y-15447273D01*
X33973207Y-15345413D01*
X33920480Y-15254087D01*
X33845913Y-15179520D01*
X33779059Y-15140922D01*
X33754589Y-15126794D01*
X33754588Y-15126793D01*
X33754587Y-15126793D01*
X33652727Y-15099500D01*
X33547273Y-15099500D01*
X33449861Y-15125601D01*
X33380011Y-15123938D01*
X33322149Y-15084775D01*
X33297994Y-15037921D01*
X33273207Y-14945413D01*
X33220480Y-14854087D01*
X33145913Y-14779520D01*
X33054587Y-14726793D01*
X33017404Y-14716830D01*
X32957746Y-14680466D01*
X32927217Y-14617619D01*
X32925500Y-14597056D01*
X32925500Y-13355146D01*
X32925498Y-13355141D01*
X32925061Y-13354087D01*
X32917721Y-13336365D01*
X32891172Y-13272266D01*
X32827733Y-13208827D01*
X32744858Y-13174501D01*
X32744856Y-13174500D01*
X32744855Y-13174500D01*
X32744853Y-13174500D01*
X30892256Y-13174500D01*
X30825217Y-13154815D01*
X30804575Y-13138182D01*
X30745913Y-13079520D01*
X30654587Y-13026793D01*
X30552727Y-12999500D01*
X30447273Y-12999500D01*
X30345413Y-13026793D01*
X30345410Y-13026794D01*
X30254087Y-13079520D01*
X30195425Y-13138182D01*
X30134101Y-13171666D01*
X30107744Y-13174500D01*
X24544855Y-13174500D01*
X24455145Y-13174500D01*
X24455143Y-13174500D01*
X24455141Y-13174501D01*
X24372266Y-13208827D01*
X24308827Y-13272266D01*
X24298189Y-13297952D01*
X24254349Y-13352356D01*
X24188055Y-13374421D01*
X24183628Y-13374500D01*
X16392256Y-13374500D01*
X16325217Y-13354815D01*
X16304575Y-13338182D01*
X16245913Y-13279520D01*
X16154587Y-13226793D01*
X16052727Y-13199500D01*
X15947273Y-13199500D01*
X15845413Y-13226793D01*
X15845410Y-13226794D01*
X15754085Y-13279521D01*
X15679521Y-13354085D01*
X15626794Y-13445410D01*
X15626793Y-13445413D01*
X15599500Y-13547273D01*
X15599500Y-13652727D01*
X15626793Y-13754587D01*
X15646373Y-13788501D01*
X15662846Y-13856399D01*
X15639994Y-13922426D01*
X15585073Y-13965617D01*
X15538986Y-13974500D01*
X15344855Y-13974500D01*
X15255145Y-13974500D01*
X15255143Y-13974500D01*
X15255140Y-13974501D01*
X15253142Y-13975329D01*
X15248435Y-13975834D01*
X15243166Y-13976883D01*
X15243072Y-13976411D01*
X15183673Y-13982795D01*
X15121195Y-13951518D01*
X15085920Y-13892860D01*
X15073207Y-13845413D01*
X15020480Y-13754087D01*
X14945913Y-13679520D01*
X14854587Y-13626793D01*
X14752727Y-13599500D01*
X14647273Y-13599500D01*
X14545413Y-13626793D01*
X14545410Y-13626794D01*
X14454085Y-13679521D01*
X14379521Y-13754085D01*
X14326794Y-13845410D01*
X14326793Y-13845413D01*
X14299500Y-13947273D01*
X14299500Y-14052727D01*
X14326659Y-14154085D01*
X14326793Y-14154586D01*
X14326794Y-14154589D01*
X14328777Y-14158023D01*
X14379231Y-14245413D01*
X14379521Y-14245914D01*
X14438181Y-14304574D01*
X14471666Y-14365897D01*
X14474500Y-14392255D01*
X14474500Y-15850500D01*
X14454815Y-15917539D01*
X14402011Y-15963294D01*
X14350500Y-15974500D01*
X9833604Y-15974500D01*
X9766565Y-15954815D01*
X9720810Y-15902011D01*
X9710998Y-15843130D01*
X9311539Y-15443670D01*
X9387007Y-15400099D01*
X9480099Y-15307007D01*
X9523670Y-15231538D01*
X9921976Y-15629844D01*
X10010499Y-15497359D01*
X10089649Y-15306274D01*
X10089651Y-15306266D01*
X10129999Y-15103420D01*
X10130000Y-15103417D01*
X10130000Y-14896583D01*
X10129999Y-14896579D01*
X10089651Y-14693733D01*
X10089649Y-14693725D01*
X10010499Y-14502641D01*
X10010494Y-14502631D01*
X9921975Y-14370155D01*
X9523670Y-14768460D01*
X9480099Y-14692993D01*
X9387007Y-14599901D01*
X9311538Y-14556329D01*
X9709843Y-14158023D01*
X9709843Y-14158021D01*
X9577363Y-14069502D01*
X9386274Y-13990350D01*
X9386266Y-13990348D01*
X9183420Y-13950000D01*
X8976579Y-13950000D01*
X8773733Y-13990348D01*
X8773725Y-13990350D01*
X8582639Y-14069501D01*
X8450155Y-14158023D01*
X8450154Y-14158023D01*
X8848461Y-14556329D01*
X8772993Y-14599901D01*
X8679901Y-14692993D01*
X8636329Y-14768460D01*
X8238023Y-14370154D01*
X8238023Y-14370155D01*
X8149501Y-14502639D01*
X8070350Y-14693725D01*
X8070348Y-14693733D01*
X8030000Y-14896579D01*
X8030000Y-15103420D01*
X8070348Y-15306266D01*
X8070350Y-15306274D01*
X8149502Y-15497363D01*
X8149502Y-15497364D01*
X8238021Y-15629843D01*
X8238023Y-15629843D01*
X8636329Y-15231538D01*
X8679901Y-15307007D01*
X8772993Y-15400099D01*
X8848460Y-15443670D01*
X8448864Y-15843266D01*
X8436779Y-15906992D01*
X8388714Y-15957702D01*
X8326395Y-15974500D01*
X7201186Y-15974500D01*
X7134147Y-15954815D01*
X7088392Y-15902011D01*
X7078448Y-15832853D01*
X7107473Y-15769297D01*
X7132296Y-15747397D01*
X7145908Y-15738302D01*
X7278302Y-15605908D01*
X7382322Y-15450231D01*
X7453973Y-15277251D01*
X7490500Y-15093616D01*
X7490500Y-14906384D01*
X7490500Y-14906381D01*
X7466926Y-14787868D01*
X7453973Y-14722749D01*
X7382322Y-14549769D01*
X7382321Y-14549768D01*
X7382318Y-14549762D01*
X7278302Y-14394092D01*
X7278299Y-14394088D01*
X7145911Y-14261700D01*
X7145907Y-14261697D01*
X6990237Y-14157681D01*
X6990228Y-14157676D01*
X6817251Y-14086027D01*
X6817243Y-14086025D01*
X6633620Y-14049500D01*
X6633616Y-14049500D01*
X6446384Y-14049500D01*
X6446379Y-14049500D01*
X6262756Y-14086025D01*
X6262748Y-14086027D01*
X6089771Y-14157676D01*
X6089762Y-14157681D01*
X5934092Y-14261697D01*
X5934088Y-14261700D01*
X5801700Y-14394088D01*
X5801697Y-14394092D01*
X5697681Y-14549762D01*
X5697676Y-14549771D01*
X5626027Y-14722748D01*
X5626024Y-14722757D01*
X5623853Y-14733673D01*
X5591466Y-14795582D01*
X5530748Y-14830154D01*
X5460979Y-14826411D01*
X5433346Y-14812578D01*
X5427734Y-14808828D01*
X5344858Y-14774501D01*
X5344856Y-14774500D01*
X5344855Y-14774500D01*
X5344853Y-14774500D01*
X5074499Y-14774500D01*
X5007460Y-14754815D01*
X4961705Y-14702011D01*
X4950499Y-14650500D01*
X4950499Y-14140105D01*
X4950498Y-14140097D01*
X4944669Y-14110787D01*
X4922457Y-14077542D01*
X4889214Y-14055332D01*
X4889215Y-14055332D01*
X4889213Y-14055331D01*
X4889211Y-14055330D01*
X4889208Y-14055329D01*
X4859901Y-14049500D01*
X3140105Y-14049500D01*
X3140097Y-14049501D01*
X3110787Y-14055330D01*
X3077542Y-14077542D01*
X3055332Y-14110785D01*
X3055329Y-14110791D01*
X3049500Y-14140098D01*
X550000Y-14140098D01*
X550000Y-674000D01*
X569685Y-606961D01*
X622489Y-561206D01*
X674000Y-550000D01*
X44326000Y-550000D01*
X44393039Y-569685D01*
G37*
%TD.AperFunction*%
%TD*%
M02*
