%TF.GenerationSoftware,KiCad,Pcbnew,10.0.5-10.0.5~ubuntu26.04.1*%
%TF.CreationDate,1980-01-01T00:00:00+00:00*%
%TF.ProjectId,attiny_sensor_controller,61747469-6e79-45f7-9365-6e736f725f63,1.0*%
%TF.SameCoordinates,Original*%
%TF.FileFunction,Copper,L2,Bot*%
%TF.FilePolarity,Positive*%
%FSLAX46Y46*%
G04 Gerber Fmt 4.6, Leading zero omitted, Abs format (unit mm)*
G04 Created by KiCad (PCBNEW 10.0.5-10.0.5~ubuntu26.04.1) date 1980-01-01 00:00:00*
%MOMM*%
%LPD*%
G01*
G04 APERTURE LIST*
%TA.AperFunction,ComponentPad*%
%ADD10R,1.700000X1.700000*%
%TD*%
%TA.AperFunction,ComponentPad*%
%ADD11C,1.700000*%
%TD*%
%TA.AperFunction,ViaPad*%
%ADD12C,0.600000*%
%TD*%
%TA.AperFunction,Conductor*%
%ADD13C,0.250000*%
%TD*%
G04 APERTURE END LIST*
D10*
%TO.P,J2,1*%
%TO.N,/UPDI*%
X4000000Y-15000000D03*
D11*
%TO.P,J2,2*%
%TO.N,/3V3*%
X6540000Y-15000000D03*
%TO.P,J2,3*%
%TO.N,/GND*%
X9080000Y-15000000D03*
%TD*%
D12*
%TO.N,/LED_CTRL*%
X13900000Y-14000000D03*
%TO.N,/I2C_SDA*%
X14500000Y-16399999D03*
%TO.N,/3V3*%
X15200000Y-13500000D03*
%TO.N,/LED_CTRL*%
X16399999Y-17000000D03*
%TO.N,/UPDI*%
X18400000Y-15600000D03*
%TO.N,/GND*%
X18700000Y-10500000D03*
%TO.N,/I2C_SDA*%
X21900000Y-14200000D03*
%TO.N,/3V3*%
X24500000Y-15100000D03*
%TO.N,/I2C_SCL*%
X28300000Y-14200000D03*
X29500000Y-14400000D03*
%TO.N,/3V3*%
X30500000Y-13400000D03*
%TO.N,/I2C_SDA*%
X31700000Y-14300000D03*
%TO.N,/GND*%
X32700000Y-12800000D03*
%TO.N,/3V3*%
X32900000Y-15100000D03*
%TO.N,/I2C_SDA*%
X33600000Y-15500000D03*
%TD*%
%TO.N,/UPDI*%
D13*
X13500000Y-16200000D02*
X13500000Y-17000000D01*
X13500000Y-17000000D02*
X13600000Y-17000000D01*
X13600000Y-17000000D02*
X13600000Y-17100000D01*
X13600000Y-17100000D02*
X13700000Y-17100000D01*
X13700000Y-17100000D02*
X13700000Y-17200000D01*
X13700000Y-17200000D02*
X13800000Y-17200000D01*
X13800000Y-17200000D02*
X13800000Y-17300000D01*
X13800000Y-17300000D02*
X13900000Y-17300000D01*
%TO.N,/LED_CTRL*%
X13900000Y-16700000D02*
X13900000Y-14000000D01*
%TO.N,/UPDI*%
X13900000Y-17300000D02*
X13900000Y-17400000D01*
X13900000Y-17400000D02*
X16000000Y-17400000D01*
%TO.N,/LED_CTRL*%
X14000000Y-16700000D02*
X13900000Y-16700000D01*
X14000000Y-16800000D02*
X14000000Y-16700000D01*
X14100000Y-16800000D02*
X14000000Y-16800000D01*
X14100000Y-16900000D02*
X14100000Y-16800000D01*
X14200000Y-16900000D02*
X14100000Y-16900000D01*
X14200000Y-17000000D02*
X14200000Y-16900000D01*
%TO.N,/I2C_SDA*%
X14500000Y-14200000D02*
X21900000Y-14200000D01*
X14500000Y-16399999D02*
X14500000Y-14200000D01*
%TO.N,/3V3*%
X15200000Y-13500000D02*
X24500000Y-13500000D01*
%TO.N,/UPDI*%
X16000000Y-17400000D02*
X16000000Y-17500000D01*
X16000000Y-17500000D02*
X16100000Y-17500000D01*
X16100000Y-17500000D02*
X16100000Y-17600000D01*
X16100000Y-17600000D02*
X16700000Y-17600000D01*
%TO.N,/LED_CTRL*%
X16399999Y-17000000D02*
X14200000Y-17000000D01*
%TO.N,/UPDI*%
X16700000Y-17500000D02*
X16800000Y-17500000D01*
X16700000Y-17600000D02*
X16700000Y-17500000D01*
X16800000Y-17400000D02*
X16900000Y-17400000D01*
X16800000Y-17500000D02*
X16800000Y-17400000D01*
X16900000Y-17300000D02*
X17000000Y-17300000D01*
X16900000Y-17400000D02*
X16900000Y-17300000D01*
X17000000Y-15600000D02*
X18400000Y-15600000D01*
X17000000Y-17300000D02*
X17000000Y-15600000D01*
%TO.N,/I2C_SDA*%
X21900000Y-14200000D02*
X23900000Y-14200000D01*
X23900000Y-14200000D02*
X23900000Y-15400000D01*
X23900000Y-15400000D02*
X24000000Y-15400000D01*
X24000000Y-15400000D02*
X24000000Y-15500000D01*
X24000000Y-15500000D02*
X24100000Y-15500000D01*
X24100000Y-15500000D02*
X24100000Y-15600000D01*
X24100000Y-15600000D02*
X24200000Y-15600000D01*
X24200000Y-15600000D02*
X24200000Y-15700000D01*
X24200000Y-15700000D02*
X24800000Y-15700000D01*
%TO.N,/3V3*%
X24500000Y-13400000D02*
X30500000Y-13400000D01*
X24500000Y-15100000D02*
X24500000Y-13400000D01*
%TO.N,/I2C_SDA*%
X24800000Y-15600000D02*
X24900000Y-15600000D01*
X24800000Y-15700000D02*
X24800000Y-15600000D01*
X24900000Y-15500000D02*
X25000000Y-15500000D01*
X24900000Y-15600000D02*
X24900000Y-15500000D01*
X25000000Y-15400000D02*
X25100000Y-15400000D01*
X25000000Y-15500000D02*
X25000000Y-15400000D01*
X25100000Y-15000000D02*
X29800000Y-15000000D01*
X25100000Y-15400000D02*
X25100000Y-15000000D01*
%TO.N,/I2C_SCL*%
X28300000Y-14200000D02*
X29300000Y-14200000D01*
X29300000Y-14200000D02*
X29300000Y-14400000D01*
X29300000Y-14400000D02*
X29500000Y-14400000D01*
%TO.N,/I2C_SDA*%
X29800000Y-14900000D02*
X29900000Y-14900000D01*
X29800000Y-15000000D02*
X29800000Y-14900000D01*
X29900000Y-14800000D02*
X30000000Y-14800000D01*
X29900000Y-14900000D02*
X29900000Y-14800000D01*
X30000000Y-14700000D02*
X30100000Y-14700000D01*
X30000000Y-14800000D02*
X30000000Y-14700000D01*
X30100000Y-14600000D02*
X31700000Y-14600000D01*
X30100000Y-14700000D02*
X30100000Y-14600000D01*
%TO.N,/3V3*%
X30500000Y-13400000D02*
X32700000Y-13400000D01*
%TO.N,/I2C_SDA*%
X31700000Y-14600000D02*
X31700000Y-14300000D01*
X32299999Y-14600000D02*
X31700000Y-14600000D01*
X32299999Y-15400000D02*
X32299999Y-14600000D01*
X32400000Y-15400000D02*
X32299999Y-15400000D01*
X32400000Y-15500000D02*
X32400000Y-15400000D01*
X32500000Y-15500000D02*
X32400000Y-15500000D01*
X32500000Y-15600000D02*
X32500000Y-15500000D01*
X32600000Y-15600000D02*
X32500000Y-15600000D01*
X32600000Y-15700000D02*
X32600000Y-15600000D01*
%TO.N,/3V3*%
X32700000Y-13400000D02*
X32700000Y-15100000D01*
X32700000Y-15100000D02*
X32900000Y-15100000D01*
%TO.N,/I2C_SDA*%
X33200000Y-15600000D02*
X33200000Y-15700000D01*
X33200000Y-15700000D02*
X32600000Y-15700000D01*
X33299999Y-15500000D02*
X33299999Y-15600000D01*
X33299999Y-15600000D02*
X33200000Y-15600000D01*
X33600000Y-15500000D02*
X33299999Y-15500000D01*
%TO.N,/UPDI*%
X4000000Y-15000000D02*
X5300000Y-15000000D01*
X5300000Y-15000000D02*
X5300000Y-16200000D01*
X5300000Y-16200000D02*
X13500000Y-16200000D01*
%TD*%
%TA.AperFunction,Conductor*%
%TO.N,/GND*%
G36*
X44393039Y-569685D02*
G01*
X44438794Y-622489D01*
X44450000Y-674000D01*
X44450000Y-29326000D01*
X44430315Y-29393039D01*
X44377511Y-29438794D01*
X44326000Y-29450000D01*
X674000Y-29450000D01*
X606961Y-29430315D01*
X561206Y-29377511D01*
X550000Y-29326000D01*
X550000Y-14140098D01*
X3049500Y-14140098D01*
X3049500Y-15859894D01*
X3049501Y-15859902D01*
X3055330Y-15889212D01*
X3077542Y-15922457D01*
X3094219Y-15933599D01*
X3110787Y-15944669D01*
X3110790Y-15944669D01*
X3110791Y-15944670D01*
X3120647Y-15946630D01*
X3140101Y-15950500D01*
X4859898Y-15950499D01*
X4889213Y-15944669D01*
X4889214Y-15944667D01*
X4900496Y-15939996D01*
X4901904Y-15943396D01*
X4948271Y-15928871D01*
X5015653Y-15947347D01*
X5062350Y-15999320D01*
X5074500Y-16052851D01*
X5074500Y-16244853D01*
X5074501Y-16244858D01*
X5108827Y-16327733D01*
X5172266Y-16391172D01*
X5236365Y-16417721D01*
X5255145Y-16425500D01*
X5344855Y-16425500D01*
X13150500Y-16425500D01*
X13217539Y-16445185D01*
X13263294Y-16497989D01*
X13274500Y-16549500D01*
X13274500Y-17044853D01*
X13274501Y-17044858D01*
X13308827Y-17127732D01*
X13308829Y-17127734D01*
X13308830Y-17127736D01*
X13372264Y-17191170D01*
X13373675Y-17192113D01*
X13407885Y-17226322D01*
X13408827Y-17227732D01*
X13408829Y-17227734D01*
X13408830Y-17227736D01*
X13472264Y-17291170D01*
X13473675Y-17292113D01*
X13507885Y-17326322D01*
X13508827Y-17327732D01*
X13508829Y-17327734D01*
X13508830Y-17327736D01*
X13572264Y-17391170D01*
X13573675Y-17392113D01*
X13607885Y-17426322D01*
X13608827Y-17427732D01*
X13608829Y-17427734D01*
X13608830Y-17427736D01*
X13672259Y-17491165D01*
X13672264Y-17491170D01*
X13673675Y-17492113D01*
X13707885Y-17526322D01*
X13708829Y-17527735D01*
X13772266Y-17591172D01*
X13836365Y-17617721D01*
X13855145Y-17625500D01*
X13944855Y-17625500D01*
X15755231Y-17625500D01*
X15822270Y-17645185D01*
X15842912Y-17661819D01*
X15872261Y-17691168D01*
X15873675Y-17692113D01*
X15907885Y-17726322D01*
X15908829Y-17727735D01*
X15972266Y-17791172D01*
X16036365Y-17817721D01*
X16055145Y-17825500D01*
X16055147Y-17825500D01*
X16744853Y-17825500D01*
X16744855Y-17825500D01*
X16786295Y-17808335D01*
X16827733Y-17791172D01*
X16827734Y-17791170D01*
X16827736Y-17791170D01*
X16891170Y-17727736D01*
X16891173Y-17727726D01*
X16892103Y-17726337D01*
X16926337Y-17692103D01*
X16927726Y-17691173D01*
X16927736Y-17691170D01*
X16991170Y-17627736D01*
X16991173Y-17627726D01*
X16992103Y-17626337D01*
X17026337Y-17592103D01*
X17027726Y-17591173D01*
X17027736Y-17591170D01*
X17091170Y-17527736D01*
X17091173Y-17527726D01*
X17092103Y-17526337D01*
X17126337Y-17492103D01*
X17127726Y-17491173D01*
X17127736Y-17491170D01*
X17191170Y-17427736D01*
X17191170Y-17427734D01*
X17191172Y-17427733D01*
X17208335Y-17386295D01*
X17225500Y-17344855D01*
X17225500Y-15949500D01*
X17245185Y-15882461D01*
X17297989Y-15836706D01*
X17349500Y-15825500D01*
X18007744Y-15825500D01*
X18074783Y-15845185D01*
X18095425Y-15861818D01*
X18154087Y-15920480D01*
X18245413Y-15973207D01*
X18347273Y-16000500D01*
X18347275Y-16000500D01*
X18452725Y-16000500D01*
X18452727Y-16000500D01*
X18554587Y-15973207D01*
X18645913Y-15920480D01*
X18720480Y-15845913D01*
X18773207Y-15754587D01*
X18800500Y-15652727D01*
X18800500Y-15547273D01*
X18773207Y-15445413D01*
X18720480Y-15354087D01*
X18645913Y-15279520D01*
X18554587Y-15226793D01*
X18452727Y-15199500D01*
X18347273Y-15199500D01*
X18245413Y-15226793D01*
X18245410Y-15226794D01*
X18154087Y-15279520D01*
X18095425Y-15338182D01*
X18034101Y-15371666D01*
X18007744Y-15374500D01*
X17044855Y-15374500D01*
X16955145Y-15374500D01*
X16955143Y-15374500D01*
X16955141Y-15374501D01*
X16872266Y-15408827D01*
X16808827Y-15472266D01*
X16774501Y-15555141D01*
X16774500Y-15555146D01*
X16774500Y-16538986D01*
X16754815Y-16606025D01*
X16702011Y-16651780D01*
X16632853Y-16661724D01*
X16588500Y-16646373D01*
X16554588Y-16626794D01*
X16554587Y-16626793D01*
X16554586Y-16626793D01*
X16452726Y-16599500D01*
X16347272Y-16599500D01*
X16245412Y-16626793D01*
X16245409Y-16626794D01*
X16154086Y-16679520D01*
X16095424Y-16738182D01*
X16034100Y-16771666D01*
X16007743Y-16774500D01*
X14961014Y-16774500D01*
X14893975Y-16754815D01*
X14848220Y-16702011D01*
X14838276Y-16632853D01*
X14853627Y-16588500D01*
X14857718Y-16581412D01*
X14873207Y-16554586D01*
X14900500Y-16452726D01*
X14900500Y-16347272D01*
X14873207Y-16245412D01*
X14820480Y-16154086D01*
X14761818Y-16095424D01*
X14728334Y-16034100D01*
X14725500Y-16007743D01*
X14725500Y-14549500D01*
X14745185Y-14482461D01*
X14797989Y-14436706D01*
X14849500Y-14425500D01*
X21507744Y-14425500D01*
X21574783Y-14445185D01*
X21595425Y-14461818D01*
X21654087Y-14520480D01*
X21745413Y-14573207D01*
X21847273Y-14600500D01*
X21847275Y-14600500D01*
X21952725Y-14600500D01*
X21952727Y-14600500D01*
X22054587Y-14573207D01*
X22145913Y-14520480D01*
X22204575Y-14461818D01*
X22265899Y-14428334D01*
X22292256Y-14425500D01*
X23550500Y-14425500D01*
X23617539Y-14445185D01*
X23663294Y-14497989D01*
X23674500Y-14549500D01*
X23674500Y-15444853D01*
X23674501Y-15444858D01*
X23708827Y-15527732D01*
X23708829Y-15527734D01*
X23708830Y-15527736D01*
X23772259Y-15591165D01*
X23772264Y-15591170D01*
X23773675Y-15592113D01*
X23807885Y-15626322D01*
X23808827Y-15627732D01*
X23808829Y-15627734D01*
X23808830Y-15627736D01*
X23872259Y-15691165D01*
X23872264Y-15691170D01*
X23873675Y-15692113D01*
X23907885Y-15726322D01*
X23908827Y-15727732D01*
X23908829Y-15727734D01*
X23908830Y-15727736D01*
X23950391Y-15769297D01*
X23972264Y-15791170D01*
X23973675Y-15792113D01*
X24007885Y-15826322D01*
X24008829Y-15827735D01*
X24072266Y-15891172D01*
X24127316Y-15913973D01*
X24155145Y-15925500D01*
X24155147Y-15925500D01*
X24844853Y-15925500D01*
X24844855Y-15925500D01*
X24889538Y-15906992D01*
X24927733Y-15891172D01*
X24927734Y-15891170D01*
X24927736Y-15891170D01*
X24991170Y-15827736D01*
X24991173Y-15827726D01*
X24992103Y-15826337D01*
X25026337Y-15792103D01*
X25027726Y-15791173D01*
X25027736Y-15791170D01*
X25091170Y-15727736D01*
X25091173Y-15727726D01*
X25092103Y-15726337D01*
X25126337Y-15692103D01*
X25127726Y-15691173D01*
X25127736Y-15691170D01*
X25191170Y-15627736D01*
X25191173Y-15627726D01*
X25192103Y-15626337D01*
X25226337Y-15592103D01*
X25227726Y-15591173D01*
X25227736Y-15591170D01*
X25291170Y-15527736D01*
X25291170Y-15527734D01*
X25291172Y-15527733D01*
X25314147Y-15472264D01*
X25325500Y-15444855D01*
X25325500Y-15349500D01*
X25345185Y-15282461D01*
X25397989Y-15236706D01*
X25449500Y-15225500D01*
X29844853Y-15225500D01*
X29844855Y-15225500D01*
X29886295Y-15208335D01*
X29927733Y-15191172D01*
X29927734Y-15191170D01*
X29927736Y-15191170D01*
X29991170Y-15127736D01*
X29991173Y-15127726D01*
X29992103Y-15126337D01*
X30026337Y-15092103D01*
X30027726Y-15091173D01*
X30027736Y-15091170D01*
X30091170Y-15027736D01*
X30091173Y-15027726D01*
X30092103Y-15026337D01*
X30126337Y-14992103D01*
X30127726Y-14991173D01*
X30127736Y-14991170D01*
X30191170Y-14927736D01*
X30191173Y-14927726D01*
X30192103Y-14926337D01*
X30226337Y-14892103D01*
X30227726Y-14891173D01*
X30227736Y-14891170D01*
X30257087Y-14861819D01*
X30318410Y-14828334D01*
X30344768Y-14825500D01*
X31655145Y-14825500D01*
X31744855Y-14825500D01*
X31950499Y-14825500D01*
X32017538Y-14845185D01*
X32063293Y-14897989D01*
X32074499Y-14949500D01*
X32074499Y-15444853D01*
X32074500Y-15444858D01*
X32108826Y-15527733D01*
X32108829Y-15527736D01*
X32172263Y-15591170D01*
X32172266Y-15591171D01*
X32173677Y-15592114D01*
X32207885Y-15626322D01*
X32208827Y-15627732D01*
X32208829Y-15627734D01*
X32208830Y-15627736D01*
X32272259Y-15691165D01*
X32272264Y-15691170D01*
X32273675Y-15692113D01*
X32307885Y-15726322D01*
X32308827Y-15727732D01*
X32308829Y-15727734D01*
X32308830Y-15727736D01*
X32350391Y-15769297D01*
X32372264Y-15791170D01*
X32373675Y-15792113D01*
X32407885Y-15826322D01*
X32408829Y-15827735D01*
X32472266Y-15891172D01*
X32527316Y-15913973D01*
X32555145Y-15925500D01*
X32555147Y-15925500D01*
X33244853Y-15925500D01*
X33244855Y-15925500D01*
X33327736Y-15891170D01*
X33327741Y-15891164D01*
X33334256Y-15886813D01*
X33400934Y-15865936D01*
X33437108Y-15872794D01*
X33437562Y-15871103D01*
X33445411Y-15873206D01*
X33445413Y-15873207D01*
X33547273Y-15900500D01*
X33547275Y-15900500D01*
X33652725Y-15900500D01*
X33652727Y-15900500D01*
X33754587Y-15873207D01*
X33845913Y-15820480D01*
X33920480Y-15745913D01*
X33973207Y-15654587D01*
X34000500Y-15552727D01*
X34000500Y-15447273D01*
X33973207Y-15345413D01*
X33920480Y-15254087D01*
X33845913Y-15179520D01*
X33779059Y-15140922D01*
X33754589Y-15126794D01*
X33754588Y-15126793D01*
X33754587Y-15126793D01*
X33652727Y-15099500D01*
X33547273Y-15099500D01*
X33449861Y-15125601D01*
X33380011Y-15123938D01*
X33322149Y-15084775D01*
X33297994Y-15037921D01*
X33273207Y-14945413D01*
X33220480Y-14854087D01*
X33145913Y-14779520D01*
X33054587Y-14726793D01*
X33017404Y-14716830D01*
X32957746Y-14680466D01*
X32927217Y-14617619D01*
X32925500Y-14597056D01*
X32925500Y-13355146D01*
X32925498Y-13355141D01*
X32891172Y-13272266D01*
X32827733Y-13208827D01*
X32744858Y-13174501D01*
X32744856Y-13174500D01*
X32744855Y-13174500D01*
X32744853Y-13174500D01*
X30892256Y-13174500D01*
X30825217Y-13154815D01*
X30804575Y-13138182D01*
X30793186Y-13126793D01*
X30745913Y-13079520D01*
X30654587Y-13026793D01*
X30552727Y-12999500D01*
X30447273Y-12999500D01*
X30345413Y-13026793D01*
X30345410Y-13026794D01*
X30254087Y-13079520D01*
X30195425Y-13138182D01*
X30134101Y-13171666D01*
X30107744Y-13174500D01*
X24544855Y-13174500D01*
X24455145Y-13174500D01*
X24455143Y-13174500D01*
X24455141Y-13174501D01*
X24372266Y-13208827D01*
X24372264Y-13208829D01*
X24342913Y-13238181D01*
X24281590Y-13271666D01*
X24255232Y-13274500D01*
X15592256Y-13274500D01*
X15525217Y-13254815D01*
X15504575Y-13238182D01*
X15504574Y-13238181D01*
X15445913Y-13179520D01*
X15354587Y-13126793D01*
X15252727Y-13099500D01*
X15147273Y-13099500D01*
X15045413Y-13126793D01*
X15045410Y-13126794D01*
X14954085Y-13179521D01*
X14879521Y-13254085D01*
X14826794Y-13345410D01*
X14826793Y-13345413D01*
X14799500Y-13447273D01*
X14799500Y-13552727D01*
X14826793Y-13654587D01*
X14874785Y-13737712D01*
X14879521Y-13745914D01*
X14896426Y-13762819D01*
X14929911Y-13824142D01*
X14924927Y-13893834D01*
X14883055Y-13949767D01*
X14817591Y-13974184D01*
X14808745Y-13974500D01*
X14544855Y-13974500D01*
X14455145Y-13974500D01*
X14455143Y-13974500D01*
X14455140Y-13974501D01*
X14453142Y-13975329D01*
X14448435Y-13975834D01*
X14443166Y-13976883D01*
X14443072Y-13976411D01*
X14383673Y-13982795D01*
X14321195Y-13951518D01*
X14285920Y-13892860D01*
X14273207Y-13845413D01*
X14220480Y-13754087D01*
X14145913Y-13679520D01*
X14054587Y-13626793D01*
X13952727Y-13599500D01*
X13847273Y-13599500D01*
X13745413Y-13626793D01*
X13745410Y-13626794D01*
X13654085Y-13679521D01*
X13579521Y-13754085D01*
X13526794Y-13845410D01*
X13526793Y-13845413D01*
X13499500Y-13947273D01*
X13499500Y-14052727D01*
X13526659Y-14154085D01*
X13526793Y-14154586D01*
X13526794Y-14154589D01*
X13528777Y-14158023D01*
X13579231Y-14245413D01*
X13579521Y-14245914D01*
X13638181Y-14304574D01*
X13671666Y-14365897D01*
X13674500Y-14392255D01*
X13674500Y-15850500D01*
X13654815Y-15917539D01*
X13602011Y-15963294D01*
X13550500Y-15974500D01*
X9833604Y-15974500D01*
X9766565Y-15954815D01*
X9720810Y-15902011D01*
X9710998Y-15843130D01*
X9311539Y-15443670D01*
X9387007Y-15400099D01*
X9480099Y-15307007D01*
X9523670Y-15231538D01*
X9921976Y-15629844D01*
X10010499Y-15497359D01*
X10089649Y-15306274D01*
X10089651Y-15306266D01*
X10129999Y-15103420D01*
X10130000Y-15103417D01*
X10130000Y-14896583D01*
X10129999Y-14896579D01*
X10089651Y-14693733D01*
X10089649Y-14693725D01*
X10010499Y-14502641D01*
X10010494Y-14502631D01*
X9921975Y-14370155D01*
X9523670Y-14768460D01*
X9480099Y-14692993D01*
X9387007Y-14599901D01*
X9311538Y-14556329D01*
X9709843Y-14158023D01*
X9709843Y-14158021D01*
X9577363Y-14069502D01*
X9386274Y-13990350D01*
X9386266Y-13990348D01*
X9183420Y-13950000D01*
X8976579Y-13950000D01*
X8773733Y-13990348D01*
X8773725Y-13990350D01*
X8582639Y-14069501D01*
X8450155Y-14158023D01*
X8450154Y-14158023D01*
X8848461Y-14556329D01*
X8772993Y-14599901D01*
X8679901Y-14692993D01*
X8636329Y-14768460D01*
X8238023Y-14370154D01*
X8238023Y-14370155D01*
X8149501Y-14502639D01*
X8070350Y-14693725D01*
X8070348Y-14693733D01*
X8030000Y-14896579D01*
X8030000Y-15103420D01*
X8070348Y-15306266D01*
X8070350Y-15306274D01*
X8149502Y-15497363D01*
X8149502Y-15497364D01*
X8238021Y-15629843D01*
X8238023Y-15629843D01*
X8636329Y-15231538D01*
X8679901Y-15307007D01*
X8772993Y-15400099D01*
X8848460Y-15443670D01*
X8448864Y-15843266D01*
X8436779Y-15906992D01*
X8388714Y-15957702D01*
X8326395Y-15974500D01*
X7201186Y-15974500D01*
X7134147Y-15954815D01*
X7088392Y-15902011D01*
X7078448Y-15832853D01*
X7107473Y-15769297D01*
X7132296Y-15747397D01*
X7145908Y-15738302D01*
X7278302Y-15605908D01*
X7382322Y-15450231D01*
X7453973Y-15277251D01*
X7490500Y-15093616D01*
X7490500Y-14906384D01*
X7490500Y-14906381D01*
X7466926Y-14787868D01*
X7453973Y-14722749D01*
X7382322Y-14549769D01*
X7382321Y-14549768D01*
X7382318Y-14549762D01*
X7278302Y-14394092D01*
X7278299Y-14394088D01*
X7145911Y-14261700D01*
X7145907Y-14261697D01*
X6990237Y-14157681D01*
X6990228Y-14157676D01*
X6817251Y-14086027D01*
X6817243Y-14086025D01*
X6633620Y-14049500D01*
X6633616Y-14049500D01*
X6446384Y-14049500D01*
X6446379Y-14049500D01*
X6262756Y-14086025D01*
X6262748Y-14086027D01*
X6089771Y-14157676D01*
X6089762Y-14157681D01*
X5934092Y-14261697D01*
X5934088Y-14261700D01*
X5801700Y-14394088D01*
X5801697Y-14394092D01*
X5697681Y-14549762D01*
X5697676Y-14549771D01*
X5626027Y-14722748D01*
X5626024Y-14722757D01*
X5623853Y-14733673D01*
X5591466Y-14795582D01*
X5530748Y-14830154D01*
X5460979Y-14826411D01*
X5433346Y-14812578D01*
X5427734Y-14808828D01*
X5344858Y-14774501D01*
X5344856Y-14774500D01*
X5344855Y-14774500D01*
X5344853Y-14774500D01*
X5074499Y-14774500D01*
X5007460Y-14754815D01*
X4961705Y-14702011D01*
X4950499Y-14650500D01*
X4950499Y-14140105D01*
X4950498Y-14140097D01*
X4944669Y-14110787D01*
X4922457Y-14077542D01*
X4889214Y-14055332D01*
X4889215Y-14055332D01*
X4889213Y-14055331D01*
X4889211Y-14055330D01*
X4889208Y-14055329D01*
X4859901Y-14049500D01*
X3140105Y-14049500D01*
X3140097Y-14049501D01*
X3110787Y-14055330D01*
X3077542Y-14077542D01*
X3055332Y-14110785D01*
X3055329Y-14110791D01*
X3049500Y-14140098D01*
X550000Y-14140098D01*
X550000Y-674000D01*
X569685Y-606961D01*
X622489Y-561206D01*
X674000Y-550000D01*
X44326000Y-550000D01*
X44393039Y-569685D01*
G37*
%TD.AperFunction*%
%TD*%
M02*
